<?xml version="1.0" encoding="UTF-8" standalone="no"?>
<!-- Created with Inkscape (http://www.inkscape.org/) -->

<svg
   xmlns:dc="http://purl.org/dc/elements/1.1/"
   xmlns:cc="http://creativecommons.org/ns#"
   xmlns:rdf="http://www.w3.org/1999/02/22-rdf-syntax-ns#"
   xmlns:svg="http://www.w3.org/2000/svg"
   xmlns="http://www.w3.org/2000/svg"
   xmlns:sodipodi="http://sodipodi.sourceforge.net/DTD/sodipodi-0.dtd"
   xmlns:inkscape="http://www.inkscape.org/namespaces/inkscape"
   width="178.9549mm"
   height="85.451164mm"
   viewBox="0 0 178.9549 85.451164"
   version="1.1"
   id="svg8"
   inkscape:version="0.92.2 5c3e80d, 2017-08-06"
   sodipodi:docname="upcoding-black-bg-shape.svg"
   inkscape:export-filename="/Users/jeandetoeuf/Google Drive/Freelance/Logo/upcodingLarge.png"
   inkscape:export-xdpi="499.96744"
   inkscape:export-ydpi="499.96744">
  <defs
     id="defs2" />
  <sodipodi:namedview
     id="base"
     pagecolor="#ffffff"
     bordercolor="#666666"
     borderopacity="1.0"
     inkscape:pageopacity="0.0"
     inkscape:pageshadow="2"
     inkscape:zoom="0.99911706"
     inkscape:cx="532.66875"
     inkscape:cy="174.3423"
     inkscape:document-units="mm"
     inkscape:current-layer="layer1"
     showgrid="false"
     inkscape:window-width="1680"
     inkscape:window-height="1006"
     inkscape:window-x="0"
     inkscape:window-y="0"
     inkscape:window-maximized="1"
     fit-margin-top="0"
     fit-margin-left="0"
     fit-margin-right="0"
     fit-margin-bottom="0"
     inkscape:pagecheckerboard="true" />
  <metadata
     id="metadata5">
    <rdf:RDF>
      <cc:Work
         rdf:about="">
        <dc:format>image/svg+xml</dc:format>
        <dc:type
           rdf:resource="http://purl.org/dc/dcmitype/StillImage" />
        <dc:title></dc:title>
      </cc:Work>
    </rdf:RDF>
  </metadata>
  <g
     inkscape:label="coding"
     inkscape:groupmode="layer"
     id="layer1"
     transform="translate(-34.46293,-146.33755)"
     style="display:inline">
    <g
       aria-label="coding"
       style="font-style:normal;font-variant:normal;font-weight:bold;font-stretch:normal;font-size:50.79999924px;line-height:1.25;font-family:Montserrat;-inkscape-font-specification:'Montserrat, Bold';font-variant-ligatures:normal;font-variant-caps:normal;font-variant-numeric:normal;font-feature-settings:normal;text-align:start;letter-spacing:0px;word-spacing:0px;writing-mode:lr-tb;text-anchor:start;fill:#000000;fill-opacity:1;stroke:none;stroke-width:0.26458332"
       id="text3701">
      <path
         d="m 49.70293,221.93351 q -4.3688,0 -7.874,-1.778 -3.4544,-1.8288 -5.4356,-5.0292 -1.9304,-3.20039 -1.9304,-7.26439 0,-4.064 1.9304,-7.2644 1.9812,-3.2004 5.4356,-4.9784 3.5052,-1.8288 7.874,-1.8288 4.318,0 7.518399,1.8288 3.2512,1.778 4.7244,5.1308 l -6.146799,3.302 q -2.1336,-3.7592 -6.1468,-3.7592 -3.0988,0 -5.1308,2.032 -2.032,2.032 -2.032,5.5372 0,3.5052 2.032,5.53719 2.032,2.032 5.1308,2.032 4.064,0 6.1468,-3.75919 l 6.146799,3.35279 q -1.4732,3.2512 -4.7244,5.08 -3.200399,1.8288 -7.518399,1.8288 z"
         style="fill:#808080"
         id="path854" />
      <path
         d="m 79.166136,221.93351 q -4.318,0 -7.7724,-1.778 -3.4036,-1.8288 -5.334,-5.0292 -1.9304,-3.20039 -1.9304,-7.26439 0,-4.064 1.9304,-7.2644 1.9304,-3.2004 5.334,-4.9784 3.4544,-1.8288 7.7724,-1.8288 4.318,0 7.7216,1.8288 3.4036,1.778 5.334,4.9784 1.9304,3.2004 1.9304,7.2644 0,4.064 -1.9304,7.26439 -1.9304,3.2004 -5.334,5.0292 -3.4036,1.778 -7.7216,1.778 z m 0,-6.5024 q 3.048,0 4.9784,-2.032 1.9812,-2.08279 1.9812,-5.53719 0,-3.4544 -1.9812,-5.4864 -1.9304,-2.0828 -4.9784,-2.0828 -3.048,0 -5.0292,2.0828 -1.9812,2.032 -1.9812,5.4864 0,3.4544 1.9812,5.53719 1.9812,2.032 5.0292,2.032 z"
         style="fill:#808080"
         id="path856" />
      <path
         d="m 132.01322,183.83352 -7.5184,37.69359 h -7.5184 l 0.5588,-2.7432 q -3.4544,3.1496 -8.382,3.1496 -3.2004,0 -5.8928,-1.4732 -2.6924,-1.4732 -4.318004,-4.2164 -1.5748,-2.794 -1.5748,-6.55319 0,-4.5212 1.9812,-8.128 2.032004,-3.6576 5.486404,-5.6896 3.4544,-2.0828 7.62,-2.0828 2.9972,0 5.2324,1.016 2.286,1.016 3.6068,2.9972 l 2.794,-13.97 z m -20.4216,31.54679 q 2.3368,0 4.1656,-1.1176 1.8288,-1.1684 2.8448,-3.20039 1.016,-2.032 1.016,-4.6736 0,-2.794 -1.6764,-4.4196 -1.6256,-1.6256 -4.572,-1.6256 -2.3368,0 -4.1656,1.1684 -1.8288,1.1176 -2.8448,3.1496 -1.016,2.032 -1.016,4.6736 0,2.794 1.6256,4.41959 1.6764,1.6256 4.6228,1.6256 z"
         style="font-style:italic;font-variant:normal;font-weight:bold;font-stretch:normal;font-size:50.79999924px;font-family:Montserrat;-inkscape-font-specification:'Montserrat, Bold Italic';font-variant-ligatures:normal;font-variant-caps:normal;font-variant-numeric:normal;font-feature-settings:normal;text-align:start;writing-mode:lr-tb;text-anchor:start;fill:#ffffff"
         id="path858" />
      <path
         d="m 134.52305,194.19672 h 7.9248 v 27.33039 h -7.9248 z m 3.9624,-3.81 q -2.1844,0 -3.556,-1.27 -1.3716,-1.27 -1.3716,-3.1496 0,-1.8796 1.3716,-3.1496 1.3716,-1.27 3.556,-1.27 2.1844,0 3.556,1.2192 1.3716,1.2192 1.3716,3.048 0,1.9812 -1.3716,3.302 -1.3716,1.27 -3.556,1.27 z"
         style="fill:#808080"
         id="path860" />
      <path
         d="m 166.41434,193.79032 q 5.08,0 8.1788,3.048 3.1496,3.048 3.1496,9.0424 v 15.64639 h -7.9248 v -14.42719 q 0,-3.2512 -1.4224,-4.826 -1.4224,-1.6256 -4.1148,-1.6256 -2.9972,0 -4.7752,1.8796 -1.778,1.8288 -1.778,5.4864 v 13.51279 h -7.9248 v -27.33039 h 7.5692 v 3.2004 q 1.5748,-1.7272 3.9116,-2.6416 2.3368,-0.9652 5.1308,-0.9652 z"
         style="fill:#808080"
         id="path862" />
      <path
         d="m 213.41783,194.19672 v 22.75839 q 0,7.5184 -3.9116,11.176 -3.9116,3.6576 -11.43,3.6576 -3.9624,0 -7.5184,-0.9652 -3.556,-0.9652 -5.8928,-2.794 l 3.1496,-5.6896 q 1.7272,1.4224 4.3688,2.2352 2.6416,0.8636 5.2832,0.8636 4.1148,0 6.0452,-1.8796 1.9812,-1.8288 1.9812,-5.588 v -1.1684 q -3.0988,3.4036 -8.636,3.4036 -3.7592,0 -6.9088,-1.6256 -3.0988,-1.6764 -4.9276,-4.6736 -1.8288,-2.99719 -1.8288,-6.90879 0,-3.9116 1.8288,-6.9088 1.8288,-2.9972 4.9276,-4.6228 3.1496,-1.6764 6.9088,-1.6764 5.9436,0 9.0424,3.9116 v -3.5052 z m -14.986,19.50719 q 3.1496,0 5.1308,-1.82879 2.032,-1.8796 2.032,-4.8768 0,-2.9972 -2.032,-4.826 -1.9812,-1.8796 -5.1308,-1.8796 -3.1496,0 -5.1816,1.8796 -2.032,1.8288 -2.032,4.826 0,2.9972 2.032,4.8768 2.032,1.82879 5.1816,1.82879 z"
         style="fill:#808080"
         id="path864" />
    </g>
    <flowRoot
       xml:space="preserve"
       id="flowRoot4552"
       style="font-style:normal;font-weight:normal;font-size:40px;line-height:1.25;font-family:sans-serif;letter-spacing:0px;word-spacing:0px;fill:#000000;fill-opacity:1;stroke:none"
       transform="matrix(0.26458333,0,0,0.26458333,0,87)"><flowRegion
         id="flowRegion4554"><rect
           id="rect4556"
           width="156.13786"
           height="121.10693"
           x="159.14052"
           y="79.069832" /></flowRegion><flowPara
         id="flowPara4558" /></flowRoot>    <flowRoot
       xml:space="preserve"
       id="flowRoot4560"
       style="font-style:normal;font-weight:normal;font-size:40px;line-height:1.25;font-family:sans-serif;letter-spacing:0px;word-spacing:0px;fill:#000000;fill-opacity:1;stroke:none"
       transform="matrix(0.26458333,0,0,0.26458333,0,87)"><flowRegion
         id="flowRegion4562"><rect
           id="rect4564"
           width="693.81372"
           height="172.06808"
           x="110.89681"
           y="92.16523" /></flowRegion><flowPara
         id="flowPara4566" /></flowRoot>  </g>
  <g
     inkscape:groupmode="layer"
     id="layer2"
     inkscape:label="up"
     style="display:inline"
     transform="translate(-34.46293,-59.337549)">
    <g
       aria-label="up"
       style="font-style:normal;font-weight:normal;font-size:10.58333302px;line-height:1.25;font-family:sans-serif;letter-spacing:0px;word-spacing:0px;display:inline;fill:#000000;fill-opacity:1;stroke:none;stroke-width:0.26458332"
       id="text4583">
      <path
         d="m 121.3463,59.743949 v 27.330399 h -7.5184 v -3.2512 q -1.5748,1.778 -3.7592,2.7432 -2.1844,0.9144 -4.7244,0.9144 -5.384802,0 -8.534402,-3.0988 -3.1496,-3.098799 -3.1496,-9.194799 v -15.4432 h 7.924802 v 14.2748 q 0,6.604 5.5372,6.604 2.8448,0 4.572,-1.8288 1.7272,-1.8796 1.7272,-5.5372 v -13.5128 z"
         style="fill:#808080"
         id="path867" />
      <path
         d="m 146.8225,59.337549 q 3.2004,0 5.8928,1.4732 2.7432,1.4732 4.318,4.2672 1.6256,2.7432 1.6256,6.5024 0,4.5212 -2.032,8.1788 -1.9812,3.6068 -5.4356,5.689599 -3.4544,2.032 -7.6708,2.032 -6.2484,0 -8.8392,-4.063999 l -2.6924,13.512799 h -7.9248 l 7.4168,-37.185599 h 7.5184 l -0.5588,2.6924 q 3.4036,-3.0988 8.382,-3.0988 z m -4.2164,21.59 q 2.3368,0 4.1656,-1.1176 1.8288,-1.1684 2.8448,-3.2004 1.016,-2.032 1.016,-4.6736 0,-2.794 -1.6764,-4.4196 -1.6256,-1.6256 -4.572,-1.6256 -2.286,0 -4.1148,1.1684 -1.8288,1.1176 -2.8448,3.1496 -1.016,2.032 -1.016,4.6736 0,2.794 1.6256,4.4196 1.6256,1.6256 4.572,1.6256 z"
         style="font-style:italic;font-variant:normal;font-weight:bold;font-stretch:normal;font-size:50.79999924px;font-family:Montserrat;-inkscape-font-specification:'Montserrat, Bold Italic';font-variant-ligatures:normal;font-variant-caps:normal;font-variant-numeric:normal;font-feature-settings:normal;text-align:start;writing-mode:lr-tb;text-anchor:start;fill:#ffffff"
         id="path869" />
    </g>
  </g>
</svg>
